# xmcd
#
# Track frame offsets: 
#        182
#        14500
#        34527
#        49197
#        65365
#        84135
#        96610
#        118187
#        130197
#        145617
#        163235
#        182772
#        195687
#        208587
#        221282
#        232305
#        244720
#
# Disc length: 3431 seconds
#
# Revision: 6
# Processed by: cddbd v1.5.2PL0 Copyright (c) Steve Scherf et al.
# Submitted via: ExactAudioCopyFreeDBPlugin 1.0
#
DISCID=f30d6811,f40d6511,fe0d6811
DTITLE=Nitty Gritty Dirt Band - Will The Circle Be Unbroken
DYEAR=1972
DGENRE=Bluegrass
TTITLE0=Grand Ole Opry Song (with Jimmy Martin)
TTITLE1=Keep On The Sunny Side (with Maybelle Carter)
TTITLE2=Nashville Blues
TTITLE3=You Are My Flower
TTITLE4=The Precious Jewel (with Roy Acuff)
TTITLE5=Dark As A Dungeon (with Merle Travis)
TTITLE6=Tennessee Stud (with Doc Watson)
TTITLE7=Black Mountain Rag
TTITLE8=The Wreck On The Highway (with Roy Acuff)
TTITLE9=The End Of The World
TTITLE10=I Saw The Light (with Roy Acuff)
TTITLE11=Sunny Side Of The Mountain
TTITLE12=Nine Pound Hammer
TTITLE13=Losin' You (Might Be The Best Thing Yet) (with Jimmy Martin)
TTITLE14=Honky Tonkin'
TTITLE15=You Don't Know My Mind (with Jimmy Martin)
TTITLE16=My Walkin' Shoes (with Jimmy Martin)
EXTD=
EXTT0=
EXTT1=
EXTT2=
EXTT3=
EXTT4=
EXTT5=
EXTT6=
EXTT7=
EXTT8=
EXTT9=
EXTT10=
EXTT11=
EXTT12=
EXTT13=
EXTT14=
EXTT15=
EXTT16=
PLAYORDER=
